<?xml version="1.0" standalone="no"?>
<!DOCTYPE svg PUBLIC "-//W3C//DTD SVG 20010904//EN"
 "http://www.w3.org/TR/2001/REC-SVG-20010904/DTD/svg10.dtd">
<svg version="1.0" xmlns="http://www.w3.org/2000/svg"
 width="239.000000pt" height="97.000000pt" viewBox="0 0 239.000000 97.000000"
 preserveAspectRatio="xMidYMid meet">

<g transform="translate(0.000000,97.000000) scale(0.100000,-0.100000)"
fill="#00338d" stroke="none">
<path d="M140 723 l-1 -248 -68 -230 -68 -230 55 -3 c30 -2 58 1 61 7 4 5 17
51 31 100 13 50 29 91 35 91 6 0 33 -45 60 -100 l49 -100 69 0 c80 0 79 -5 16
123 l-39 77 109 0 109 0 -29 -97 c-16 -54 -29 -99 -29 -100 0 -2 28 -3 63 -3
l64 0 28 100 27 100 159 0 c88 0 159 -4 159 -8 0 -4 -11 -46 -25 -93 -13 -46
-25 -88 -25 -92 0 -4 30 -7 67 -5 l66 3 27 95 c26 93 27 95 58 98 l32 3 0
-101 0 -101 57 3 56 3 60 98 60 97 43 0 c24 0 44 -3 44 -7 0 -5 -9 -48 -20
-97 -11 -50 -20 -91 -20 -93 0 -2 28 -3 63 -3 l64 0 18 100 18 100 38 0 c36 0
37 -1 44 -47 10 -68 40 -112 94 -137 40 -18 63 -21 166 -19 66 0 140 5 165 10
l45 8 25 93 25 92 73 0 72 0 0 380 0 380 -265 0 -265 0 0 -243 c0 -231 -1
-245 -20 -262 -20 -18 -20 -17 -20 243 l0 262 -270 0 -270 0 0 -220 c0 -213
-1 -220 -20 -220 -19 0 -20 7 -20 220 l0 220 -265 0 -265 0 0 -220 c0 -213 -1
-220 -20 -220 -19 0 -20 7 -20 220 l0 220 -265 0 -265 0 0 -247z m500 0 l0
-226 -37 -134 -38 -133 -117 0 c-109 0 -118 2 -128 21 -10 19 1 34 116 150
l128 129 -76 0 -77 0 -53 -57 c-133 -142 -148 -157 -144 -143 3 8 14 49 26 90
12 41 24 83 26 93 5 15 -2 17 -55 17 l-61 0 0 210 0 210 245 0 245 0 0 -227z
m590 17 l0 -210 -65 0 -64 0 -20 -67 c-11 -38 -30 -105 -43 -150 l-23 -83 -65
0 -65 0 31 19 c89 54 121 193 58 252 -23 21 -37 24 -135 27 l-109 4 0 209 0
209 250 0 250 0 0 -210z m570 -56 c0 -261 0 -266 -24 -307 -13 -23 -31 -66
-41 -94 -16 -50 -18 -53 -51 -53 -19 0 -34 4 -34 8 0 5 13 66 30 138 16 71 30
135 30 142 0 9 -27 12 -102 12 l-103 0 -93 -150 c-51 -83 -97 -150 -103 -150
-5 0 -9 143 -9 360 l0 360 250 0 250 0 0 -266z m570 -94 l0 -360 -61 0 c-66 0
-67 2 -43 64 5 14 -9 16 -120 16 l-126 0 -6 -28 c-3 -15 -7 -33 -10 -39 -2 -9
-25 -13 -69 -13 l-65 0 6 27 c29 119 107 203 187 203 31 0 77 -36 77 -61 0
-17 8 -19 74 -19 68 0 74 2 78 23 12 63 -37 127 -115 148 -56 15 -158 6 -232
-20 -32 -11 -63 -21 -67 -21 -4 0 -8 99 -8 220 l0 220 250 0 250 0 0 -360z
m-1488 -167 c8 -31 -11 -81 -38 -102 -19 -15 -41 -21 -75 -21 l-48 0 5 33 c3
17 10 49 15 70 l10 37 63 0 c52 0 64 -3 68 -17z m317 -145 c1 -47 0 -48 -30
-48 -20 0 -29 4 -26 13 3 6 13 46 23 87 l19 75 7 -40 c4 -22 7 -61 7 -87z
m343 36 l-19 -79 -38 -3 c-20 -2 -36 1 -34 6 7 16 104 161 107 158 1 -2 -6
-39 -16 -82z m553 -136 c-12 -61 -16 -67 -46 -73 -81 -18 -169 24 -169 80 l0
25 111 0 111 0 -7 -32z"/>
</g>
</svg>
